M48
; DRILL file KiCad 10.0.0 date 2026-09-11T13:14:52
; FORMAT={-:-/ absolute / metric / decimal}
; #@! TF.CreationDate,2026-09-11T13:14:52-04:00
; #@! TF.GenerationSoftware,Kicad,Pcbnew,10.0.0
; #@! TF.FileFunction,NonPlated,1,2,NPTH
FMAT,2
METRIC
; #@! TA.AperFunction,NonPlated,NPTH,ComponentDrill
T1C1.750
; #@! TA.AperFunction,NonPlated,NPTH,ComponentDrill
T2C3.988
%
G90
G05
T1
X50.34Y-72.0
X50.34Y-91.0
X60.5Y-72.0
X60.5Y-91.0
X69.38Y-68.5
X69.38Y-87.5
X79.54Y-68.5
X79.54Y-87.5
X88.46Y-68.5
X88.46Y-87.5
X97.7Y-116.0
X98.62Y-68.5
X98.62Y-87.5
X107.42Y-72.0
X107.42Y-91.0
X107.86Y-116.0
X116.92Y-116.0
X117.58Y-72.0
X117.58Y-91.0
X127.08Y-116.0
X131.5Y-76.42
X131.5Y-86.58
X136.14Y-116.0
X145.5Y-72.08
X145.5Y-91.08
X146.3Y-116.0
X155.36Y-116.0
X155.66Y-72.08
X155.66Y-91.08
X164.54Y-87.5
X164.62Y-68.5
X165.52Y-116.0
X174.7Y-87.5
X174.78Y-68.5
X183.54Y-87.5
X183.62Y-68.5
X193.7Y-87.5
X193.78Y-68.5
X202.62Y-72.0
X202.62Y-91.0
X212.78Y-72.0
X212.78Y-91.0
X221.78Y-72.0
X221.78Y-91.0
X231.94Y-72.0
X231.94Y-91.0
T2
X55.42Y-72.0
X55.42Y-91.0
X74.46Y-68.5
X74.46Y-87.5
X93.54Y-68.5
X93.54Y-87.5
X102.78Y-116.0
X112.5Y-72.0
X112.5Y-91.0
X122.0Y-116.0
X123.245Y-69.594
X123.245Y-93.406
X131.5Y-81.5
X141.22Y-116.0
X150.58Y-72.08
X150.58Y-91.08
X160.44Y-116.0
X169.62Y-87.5
X169.7Y-68.5
X188.62Y-87.5
X188.7Y-68.5
X207.7Y-72.0
X207.7Y-91.0
X226.86Y-72.0
X226.86Y-91.0
M30
