%TF.GenerationSoftware,KiCad,Pcbnew,10.0.0*%
%TF.CreationDate,2026-09-11T13:14:41-04:00*%
%TF.ProjectId,stenoqwit,7374656e-6f71-4776-9974-2e6b69636164,rev?*%
%TF.SameCoordinates,Original*%
%TF.FileFunction,Soldermask,Bot*%
%TF.FilePolarity,Negative*%
%FSLAX46Y46*%
G04 Gerber Fmt 4.6, Leading zero omitted, Abs format (unit mm)*
G04 Created by KiCad (PCBNEW 10.0.0) date 2026-09-11 13:14:41*
%MOMM*%
%LPD*%
G01*
G04 APERTURE LIST*
G04 Aperture macros list*
%AMRoundRect*
0 Rectangle with rounded corners*
0 $1 Rounding radius*
0 $2 $3 $4 $5 $6 $7 $8 $9 X,Y pos of 4 corners*
0 Add a 4 corners polygon primitive as box body*
4,1,4,$2,$3,$4,$5,$6,$7,$8,$9,$2,$3,0*
0 Add four circle primitives for the rounded corners*
1,1,$1+$1,$2,$3*
1,1,$1+$1,$4,$5*
1,1,$1+$1,$6,$7*
1,1,$1+$1,$8,$9*
0 Add four rect primitives between the rounded corners*
20,1,$1+$1,$2,$3,$4,$5,0*
20,1,$1+$1,$4,$5,$6,$7,0*
20,1,$1+$1,$6,$7,$8,$9,0*
20,1,$1+$1,$8,$9,$2,$3,0*%
G04 Aperture macros list end*
%ADD10C,1.750000*%
%ADD11C,3.987800*%
%ADD12C,2.300000*%
%ADD13C,4.000000*%
%ADD14RoundRect,0.225000X0.375000X-0.225000X0.375000X0.225000X-0.375000X0.225000X-0.375000X-0.225000X0*%
%ADD15RoundRect,0.225000X0.225000X0.375000X-0.225000X0.375000X-0.225000X-0.375000X0.225000X-0.375000X0*%
G04 APERTURE END LIST*
D10*
%TO.C,MX21*%
X136140000Y-116000000D03*
D11*
X141220000Y-116000000D03*
D10*
X146300000Y-116000000D03*
D12*
X137410000Y-113460000D03*
X143760000Y-110920000D03*
%TD*%
D10*
%TO.C,MX2*%
X69380000Y-68500000D03*
D11*
X74460000Y-68500000D03*
D10*
X79540000Y-68500000D03*
D12*
X70650000Y-65960000D03*
X77000000Y-63420000D03*
%TD*%
D10*
%TO.C,MX8*%
X202620000Y-72000000D03*
D11*
X207700000Y-72000000D03*
D10*
X212780000Y-72000000D03*
D12*
X203890000Y-69460000D03*
X210240000Y-66920000D03*
%TD*%
D10*
%TO.C,MX22*%
X155360000Y-116000000D03*
D11*
X160440000Y-116000000D03*
D10*
X165520000Y-116000000D03*
D12*
X156630000Y-113460000D03*
X162980000Y-110920000D03*
%TD*%
D10*
%TO.C,MX17*%
X202620000Y-91000000D03*
D11*
X207700000Y-91000000D03*
D10*
X212780000Y-91000000D03*
D12*
X203890000Y-88460000D03*
X210240000Y-85920000D03*
%TD*%
D10*
%TO.C,MX18*%
X221780000Y-91000000D03*
D11*
X226860000Y-91000000D03*
D10*
X231940000Y-91000000D03*
D12*
X223050000Y-88460000D03*
X229400000Y-85920000D03*
%TD*%
D10*
%TO.C,MX12*%
X88460000Y-87500000D03*
D11*
X93540000Y-87500000D03*
D10*
X98620000Y-87500000D03*
D12*
X89730000Y-84960000D03*
X96080000Y-82420000D03*
%TD*%
D10*
%TO.C,MX4*%
X107420000Y-72000000D03*
D11*
X112500000Y-72000000D03*
D10*
X117580000Y-72000000D03*
D12*
X108690000Y-69460000D03*
X115040000Y-66920000D03*
%TD*%
D10*
%TO.C,MX7*%
X183620000Y-68500000D03*
D11*
X188700000Y-68500000D03*
D10*
X193780000Y-68500000D03*
D12*
X184890000Y-65960000D03*
X191240000Y-63420000D03*
%TD*%
D10*
%TO.C,MX1*%
X50340000Y-72000000D03*
D11*
X55420000Y-72000000D03*
D10*
X60500000Y-72000000D03*
D12*
X51610000Y-69460000D03*
X57960000Y-66920000D03*
%TD*%
D10*
%TO.C,MX10*%
X50340000Y-91000000D03*
D11*
X55420000Y-91000000D03*
D10*
X60500000Y-91000000D03*
D12*
X51610000Y-88460000D03*
X57960000Y-85920000D03*
%TD*%
D10*
%TO.C,MX11*%
X69380000Y-87500000D03*
D11*
X74460000Y-87500000D03*
D10*
X79540000Y-87500000D03*
D12*
X70650000Y-84960000D03*
X77000000Y-82420000D03*
%TD*%
D10*
%TO.C,MX23*%
X131500000Y-86580000D03*
D11*
X131500000Y-81500000D03*
D10*
X131500000Y-76420000D03*
D12*
X128960000Y-85310000D03*
X126420000Y-78960000D03*
%TD*%
D10*
%TO.C,MX20*%
X116920000Y-116000000D03*
D11*
X122000000Y-116000000D03*
D10*
X127080000Y-116000000D03*
D12*
X118190000Y-113460000D03*
X124540000Y-110920000D03*
%TD*%
D10*
%TO.C,MX5*%
X145500000Y-72080000D03*
D11*
X150580000Y-72080000D03*
D10*
X155660000Y-72080000D03*
D12*
X146770000Y-69540000D03*
X153120000Y-67000000D03*
%TD*%
D10*
%TO.C,MX9*%
X221780000Y-72000000D03*
D11*
X226860000Y-72000000D03*
D10*
X231940000Y-72000000D03*
D12*
X223050000Y-69460000D03*
X229400000Y-66920000D03*
%TD*%
D10*
%TO.C,MX14*%
X145500000Y-91080000D03*
D11*
X150580000Y-91080000D03*
D10*
X155660000Y-91080000D03*
D12*
X146770000Y-88540000D03*
X153120000Y-86000000D03*
%TD*%
D13*
%TO.C,S1*%
X138485000Y-69593750D03*
D11*
X123245000Y-69593750D03*
D13*
X138485000Y-93406250D03*
D11*
X123245000Y-93406250D03*
%TD*%
D10*
%TO.C,MX19*%
X97700000Y-116000000D03*
D11*
X102780000Y-116000000D03*
D10*
X107860000Y-116000000D03*
D12*
X98970000Y-113460000D03*
X105320000Y-110920000D03*
%TD*%
D10*
%TO.C,MX16*%
X183540000Y-87500000D03*
D11*
X188620000Y-87500000D03*
D10*
X193700000Y-87500000D03*
D12*
X184810000Y-84960000D03*
X191160000Y-82420000D03*
%TD*%
D10*
%TO.C,MX6*%
X164620000Y-68500000D03*
D11*
X169700000Y-68500000D03*
D10*
X174780000Y-68500000D03*
D12*
X165890000Y-65960000D03*
X172240000Y-63420000D03*
%TD*%
D10*
%TO.C,MX3*%
X88460000Y-68500000D03*
D11*
X93540000Y-68500000D03*
D10*
X98620000Y-68500000D03*
D12*
X89730000Y-65960000D03*
X96080000Y-63420000D03*
%TD*%
D10*
%TO.C,MX15*%
X164540000Y-87500000D03*
D11*
X169620000Y-87500000D03*
D10*
X174700000Y-87500000D03*
D12*
X165810000Y-84960000D03*
X172160000Y-82420000D03*
%TD*%
D10*
%TO.C,MX13*%
X107420000Y-91000000D03*
D11*
X112500000Y-91000000D03*
D10*
X117580000Y-91000000D03*
D12*
X108690000Y-88460000D03*
X115040000Y-85920000D03*
%TD*%
D14*
%TO.C,D6*%
X173000000Y-70300000D03*
X173000000Y-67000000D03*
%TD*%
%TO.C,D9*%
X230000000Y-74150000D03*
X230000000Y-70850000D03*
%TD*%
%TO.C,D1*%
X58500000Y-74500000D03*
X58500000Y-71200000D03*
%TD*%
%TO.C,D20*%
X125000000Y-118150000D03*
X125000000Y-114850000D03*
%TD*%
%TO.C,D4*%
X115500000Y-74300000D03*
X115500000Y-71000000D03*
%TD*%
%TO.C,D19*%
X106000000Y-118150000D03*
X106000000Y-114850000D03*
%TD*%
%TO.C,D12*%
X96500000Y-89650000D03*
X96500000Y-86350000D03*
%TD*%
%TO.C,D21*%
X144500000Y-118150000D03*
X144500000Y-114850000D03*
%TD*%
%TO.C,D15*%
X173000000Y-89150000D03*
X173000000Y-85850000D03*
%TD*%
%TO.C,D14*%
X153500000Y-93150000D03*
X153500000Y-89850000D03*
%TD*%
%TO.C,D11*%
X77500000Y-89650000D03*
X77500000Y-86350000D03*
%TD*%
%TO.C,D5*%
X153500000Y-74300000D03*
X153500000Y-71000000D03*
%TD*%
%TO.C,D8*%
X211000000Y-74150000D03*
X211000000Y-70850000D03*
%TD*%
%TO.C,D2*%
X77500000Y-70650000D03*
X77500000Y-67350000D03*
%TD*%
%TO.C,D3*%
X96500000Y-70650000D03*
X96500000Y-67350000D03*
%TD*%
%TO.C,D17*%
X211000000Y-93150000D03*
X211000000Y-89850000D03*
%TD*%
%TO.C,D18*%
X230000000Y-93150000D03*
X230000000Y-89850000D03*
%TD*%
D15*
%TO.C,D23*%
X133500000Y-78500000D03*
X130200000Y-78500000D03*
%TD*%
D14*
%TO.C,D16*%
X192000000Y-89150000D03*
X192000000Y-85850000D03*
%TD*%
%TO.C,D10*%
X58500000Y-93150000D03*
X58500000Y-89850000D03*
%TD*%
%TO.C,D22*%
X163500000Y-118150000D03*
X163500000Y-114850000D03*
%TD*%
%TO.C,D7*%
X192000000Y-70300000D03*
X192000000Y-67000000D03*
%TD*%
%TO.C,D13*%
X115500000Y-93150000D03*
X115500000Y-89850000D03*
%TD*%
M02*
