M48
; DRILL file KiCad 10.0.0 date 2026-09-11T13:14:52
; FORMAT={-:-/ absolute / metric / decimal}
; #@! TF.CreationDate,2026-09-11T13:14:52-04:00
; #@! TF.GenerationSoftware,Kicad,Pcbnew,10.0.0
; #@! TF.FileFunction,Plated,1,2,PTH
FMAT,2
METRIC
; #@! TA.AperFunction,Plated,PTH,ViaDrill
T1C0.300
; #@! TA.AperFunction,Plated,PTH,ComponentDrill
T2C1.000
; #@! TA.AperFunction,Plated,PTH,ComponentDrill
T3C1.524
; #@! TA.AperFunction,Plated,PTH,ComponentDrill
T4C3.048
%
G90
G05
T1
X76.0Y-96.5
X129.0Y-97.0
X131.5Y-118.344
X135.0Y-87.0
X164.0Y-94.5
X174.0Y-120.0
X215.5Y-88.5
X217.0Y-97.5
X230.0Y-93.15
X234.5Y-98.0
T2
X204.3Y-101.26
X204.3Y-116.5
X206.84Y-101.26
X206.84Y-116.5
X209.38Y-101.26
X209.38Y-116.5
X211.92Y-101.26
X211.92Y-116.5
X214.46Y-101.26
X214.46Y-116.5
X217.0Y-101.26
X217.0Y-116.5
X219.54Y-101.26
X219.54Y-116.5
X222.08Y-101.26
X222.08Y-116.5
X224.62Y-101.26
X224.62Y-116.5
X227.16Y-101.26
X227.16Y-116.5
X229.7Y-101.26
X229.7Y-116.5
X232.24Y-101.26
X232.24Y-116.5
T3
X51.61Y-69.46
X51.61Y-88.46
X57.96Y-66.92
X57.96Y-85.92
X70.65Y-65.96
X70.65Y-84.96
X77.0Y-63.42
X77.0Y-82.42
X89.73Y-65.96
X89.73Y-84.96
X96.08Y-63.42
X96.08Y-82.42
X98.97Y-113.46
X105.32Y-110.92
X108.69Y-69.46
X108.69Y-88.46
X115.04Y-66.92
X115.04Y-85.92
X118.19Y-113.46
X124.54Y-110.92
X126.42Y-78.96
X128.96Y-85.31
X137.41Y-113.46
X143.76Y-110.92
X146.77Y-69.54
X146.77Y-88.54
X153.12Y-67.0
X153.12Y-86.0
X156.63Y-113.46
X162.98Y-110.92
X165.81Y-84.96
X165.89Y-65.96
X172.16Y-82.42
X172.24Y-63.42
X184.81Y-84.96
X184.89Y-65.96
X191.16Y-82.42
X191.24Y-63.42
X203.89Y-69.46
X203.89Y-88.46
X210.24Y-66.92
X210.24Y-85.92
X223.05Y-69.46
X223.05Y-88.46
X229.4Y-66.92
X229.4Y-85.92
T4
X138.485Y-69.594
X138.485Y-93.406
M30
